<svg width="18" height="17" viewBox="0 0 18 17" fill="none" xmlns="http://www.w3.org/2000/svg">
<path d="M0.991623 17C0.714558 16.9995 0.450434 16.8892 0.263692 16.6958C0.0735075 16.504 -0.0209962 16.2447 0.00392886 15.9829L0.245914 13.4692L11.4246 2.9124L14.9181 6.21176L3.74235 16.7677L1.0815 16.9963C1.05088 16.9991 1.02027 17 0.991623 17ZM15.6154 5.55208L12.1229 2.25272L14.2178 0.273659C14.4031 0.0984486 14.6545 0 14.9166 0C15.1788 0 15.4302 0.0984486 15.6154 0.273659L17.7103 2.25272C17.8958 2.42773 18 2.66522 18 2.91287C18 3.16051 17.8958 3.398 17.7103 3.57302L15.6164 5.55114L15.6154 5.55208Z" fill="#CFDBD5"/>
</svg>
