<svg width="24" height="24" viewBox="0 0 24 24" fill="none" xmlns="http://www.w3.org/2000/svg">
<path d="M12.0003 15.7495C14.0713 15.7495 15.7503 14.0706 15.7503 11.9995C15.7503 9.92847 14.0713 8.24954 12.0003 8.24954C9.92921 8.24954 8.25027 9.92847 8.25027 11.9995C8.25027 14.0706 9.92921 15.7495 12.0003 15.7495Z" stroke="#777777" stroke-width="2" stroke-linecap="round" stroke-linejoin="round"/>
<path d="M16.9767 19.4997C15.3058 20.6086 13.3125 21.1278 11.3129 20.9748C9.31343 20.8219 7.42226 20.0055 5.93951 18.6554C4.45677 17.3052 3.46738 15.4985 3.12833 13.5221C2.78929 11.5456 3.12001 9.51245 4.06802 7.74532C5.01602 5.97818 6.52702 4.57825 8.36125 3.76765C10.1955 2.95704 12.2479 2.7822 14.1928 3.27086C16.1377 3.75952 17.8637 4.88369 19.097 6.465C20.3303 8.04631 21.0001 9.99418 21.0003 11.9995C21.0003 14.0706 20.2503 15.7495 18.3753 15.7495C16.5003 15.7495 15.7503 14.0706 15.7503 11.9995V8.24954" stroke="#777777" stroke-width="2" stroke-linecap="round" stroke-linejoin="round"/>
</svg>
