<svg width="656" height="436" viewBox="0 0 656 436" fill="none" xmlns="http://www.w3.org/2000/svg">
<path d="M656 431.072H0V436H656V431.072Z" fill="#85848B"/>
<path d="M519.722 344.057C519.722 347.848 498.228 358.899 472.697 358.899C447.165 358.899 427.271 347.848 427.271 344.057C427.271 340.266 447.965 341.487 473.522 341.487C499.078 341.487 519.722 340.26 519.722 344.057Z" fill="#504F60"/>
<path opacity="0.2" d="M519.722 344.057C519.722 347.848 498.228 358.899 472.697 358.899C447.165 358.899 427.271 347.848 427.271 344.057" fill="black"/>
<path d="M262.599 274.499C266.743 275.045 271.043 275.392 275.012 274.069C275.637 273.869 276.324 273.426 276.262 272.784C276.217 272.55 276.121 272.33 275.98 272.141C274.484 269.834 273.227 267.373 272.23 264.797C272.191 264.663 272.109 264.545 271.999 264.463C271.87 264.415 271.728 264.415 271.599 264.463C269.768 264.958 268.186 266.172 266.368 266.693C265.44 266.954 264.472 267.028 263.518 266.911C262.693 266.815 261.568 266.114 260.818 266.204C261.243 269.012 262.28 271.633 262.599 274.499Z" fill="#6C63FF"/>
<path d="M340.969 267.386C343.7 265.459 346.532 263.435 348.144 260.46C348.259 260.282 348.326 260.076 348.338 259.863C348.31 259.653 348.231 259.454 348.107 259.284C346.571 256.774 344.593 254.58 342.275 252.814C341.066 253.693 339.973 254.729 339.025 255.898C338.338 256.644 336.438 257.826 336.419 258.963C336.419 259.606 337.144 260.351 337.481 260.891C337.938 261.585 338.369 262.291 338.781 263.011C339.019 263.364 341.188 267.245 340.969 267.386Z" fill="#6C63FF"/>
<path d="M278.843 283.102C278.892 283.764 278.715 284.423 278.343 284.965C278.051 285.267 277.69 285.488 277.293 285.608C271.499 287.741 264.793 285.081 259.011 287.182C257.824 287.613 256.699 288.236 255.505 288.647C254.082 289.087 252.613 289.354 251.13 289.444C249.086 289.643 247.03 289.771 244.98 289.829C243.422 289.943 241.857 289.802 240.342 289.412C239.585 289.212 238.877 288.851 238.264 288.352C237.651 287.853 237.147 287.226 236.786 286.514C236.472 285.875 236.409 285.137 236.611 284.451C236.701 284.217 236.83 283.999 236.992 283.809C237.384 283.357 237.844 282.973 238.355 282.672L240.486 281.258C241.485 280.532 242.571 279.94 243.717 279.498C244.561 279.215 245.455 279.093 246.311 278.855C249.305 277.956 251.592 275.514 253.717 273.169L256.617 269.989C256.889 269.639 257.232 269.355 257.624 269.16C258.026 269.022 258.453 268.98 258.874 269.038C261.691 269.244 264.411 270.182 266.78 271.762C267.386 272.229 268.04 272.625 268.73 272.944C270.43 273.625 272.611 273.111 274.18 272.25C274.924 271.839 274.761 271.608 275.074 270.875C275.387 270.143 276.149 269.674 276.812 270.342C277.011 270.573 277.153 270.851 277.224 271.152C277.849 273.272 277.612 275.553 277.612 277.776C277.593 278.123 277.636 278.472 277.737 278.804C277.896 279.139 278.086 279.457 278.305 279.755C278.35 279.833 278.39 279.915 278.424 279.999C278.806 280.983 278.95 282.048 278.843 283.102Z" fill="#514E7F"/>
<path d="M278.843 283.102C278.892 283.764 278.715 284.423 278.343 284.965C278.051 285.267 277.69 285.488 277.293 285.608C271.499 287.741 264.793 285.081 259.011 287.182C257.824 287.613 256.699 288.236 255.505 288.647C254.082 289.087 252.613 289.354 251.13 289.444C249.086 289.643 247.03 289.771 244.98 289.829C243.422 289.943 241.857 289.802 240.342 289.412C239.585 289.212 238.877 288.851 238.264 288.352C237.651 287.853 237.147 287.226 236.786 286.514C236.472 285.875 236.409 285.136 236.611 284.451C236.701 284.216 236.83 283.999 236.992 283.809C237.33 284.535 237.573 285.499 237.786 285.846C238.073 286.36 238.463 286.805 238.931 287.152C239.399 287.499 239.933 287.739 240.498 287.857C241.344 287.91 242.193 287.799 242.998 287.529C248.249 286.193 253.83 286.173 258.874 284.149C260.605 283.449 262.255 282.517 264.074 282.093C265.893 281.669 267.824 281.785 269.699 281.624C272.661 281.38 275.53 280.461 278.449 279.979C278.826 280.972 278.961 282.044 278.843 283.102Z" fill="#464353"/>
<path d="M354.238 266.994C353.963 269.256 352.569 271.203 351.038 272.854C349.507 274.505 347.775 275.99 346.557 277.891C345.057 280.249 344.382 283.173 342.432 285.165C341.683 285.889 340.842 286.505 339.931 286.996C338.912 287.614 337.833 288.125 336.713 288.518C333.8 289.476 330.663 289.257 327.619 289.026C326.631 289.016 325.652 288.823 324.731 288.454C324.312 288.235 323.911 287.982 323.531 287.696C322.768 287.213 322.126 286.553 321.656 285.769C321.425 285.342 321.361 284.842 321.475 284.368C321.649 283.846 321.948 283.378 322.344 283.006C323.029 282.274 323.764 281.593 324.544 280.969C325.614 280.259 326.578 279.393 327.406 278.399C327.914 277.613 328.289 276.744 328.512 275.829C328.955 274.226 329.226 272.578 329.319 270.914C329.315 269.808 329.426 268.705 329.65 267.624C330.113 265.928 331.338 264.412 331.2 262.658C331.144 262.406 331.166 262.144 331.263 261.906C331.408 261.72 331.611 261.591 331.838 261.54C332.793 261.148 333.8 260.908 334.825 260.826C335.339 260.79 335.855 260.871 336.335 261.065C336.815 261.258 337.247 261.558 337.6 261.944C338.025 262.471 338.306 263.229 338.931 263.435C339.241 263.522 339.566 263.535 339.881 263.474C341.419 263.313 343.044 263.114 344.257 262.092C344.817 261.575 345.267 260.945 345.579 260.241C345.891 259.536 346.058 258.773 346.069 257.999C346.069 257.415 345.813 256.804 346.694 256.714C347.357 256.624 347.882 257.357 348.219 257.807C349.438 259.484 350.688 261.238 351.144 263.281C351.322 263.21 351.51 263.173 351.7 263.172C352.09 263.168 352.475 263.261 352.822 263.444C353.169 263.626 353.469 263.892 353.694 264.219C354.192 265.048 354.385 266.032 354.238 266.994Z" fill="#514E7F"/>
<path d="M354.238 266.995C353.963 269.256 352.569 271.203 351.038 272.854C349.507 274.506 347.775 275.99 346.557 277.892C345.057 280.25 344.382 283.173 342.432 285.165C341.683 285.889 340.842 286.505 339.931 286.996C338.912 287.614 337.833 288.125 336.713 288.519C333.8 289.476 330.663 289.258 327.619 289.026C326.631 289.016 325.652 288.823 324.731 288.454C324.312 288.235 323.911 287.982 323.531 287.696C322.768 287.213 322.126 286.553 321.656 285.769C322.242 285.479 322.881 285.321 323.531 285.306C324.881 285.383 325.869 286.694 327.162 287.099C329.006 287.671 330.844 286.334 332.713 285.878C333.931 285.582 335.213 285.659 336.419 285.235C337.424 284.836 338.353 284.257 339.163 283.526C340.273 282.711 341.26 281.732 342.094 280.622C342.787 279.512 343.363 278.33 343.813 277.095C344.8 274.728 345.961 272.443 347.288 270.259C347.484 269.913 347.721 269.593 347.994 269.308C348.288 269.031 348.619 268.839 348.95 268.594C350.2 267.624 350.719 266.024 351.157 264.457C351.275 263.98 351.441 263.517 351.65 263.075C352.04 263.072 352.425 263.165 352.772 263.348C353.119 263.53 353.419 263.796 353.644 264.123C354.182 264.971 354.394 265.995 354.238 266.995Z" fill="#464353"/>
<path d="M223.179 66.6731C224.735 67.8715 226.015 69.407 226.929 71.1707C227.804 72.9312 232.848 86.5909 232.554 88.5763C234.198 86.8736 240.68 86.5973 242.342 84.8947C243.036 84.1815 246.78 80.622 247.342 79.7932C247.905 78.9643 252.08 77.2231 252.536 76.3493C254.242 73.2075 240.436 61.3018 242.205 58.1985C242.302 58.0559 242.353 57.8846 242.348 57.7102C242.308 57.5637 242.228 57.4321 242.117 57.3311C240.986 56.1424 239.486 55.4035 238.123 54.5233C236.761 53.6431 235.448 52.4159 235.079 50.7968C233.78 51.4116 232.587 52.2407 231.548 53.2511C229.015 55.4828 226.525 57.7594 224.079 60.081C223.123 60.9934 221.273 62.2077 220.829 63.512C220.304 64.9127 222.267 65.9086 223.179 66.6731Z" fill="#A1616A"/>
<path d="M245.53 61.6166C243.411 63.0799 241.432 64.7449 239.617 66.5896C237.905 68.3308 236.28 70.3483 235.867 72.7834C235.692 73.7407 235.717 74.7109 235.573 75.6811C234.948 79.8895 231.411 82.9736 229.848 86.9121C229.396 88.1277 229.063 89.3869 228.854 90.6708C228.415 93.1046 228.175 95.5719 228.136 98.0468C228.098 100.443 230.386 102.095 231.223 104.331C232.061 106.566 232.286 108.867 232.711 111.16C233.511 115.491 234.979 119.667 236.461 123.818C239.542 132.569 249.53 156.759 252.611 165.517C262.055 163.082 287.193 157.485 295.556 152.352C298.343 150.643 276.212 131.361 279.193 130.031C279.363 130.004 279.525 129.936 279.666 129.833C279.806 129.731 279.922 129.596 280.003 129.439C280.084 129.283 280.129 129.109 280.134 128.932C280.139 128.755 280.103 128.579 280.03 128.418C277.049 115.015 267.724 104.003 263.493 90.9535C262.024 86.4238 259.386 82.5559 257.386 78.2511C255.574 74.3511 254.605 70.0399 252.436 66.3326C252.027 65.5688 251.492 64.884 250.855 64.3087C250.314 63.8823 249.729 63.5182 249.111 63.2228C247.873 62.606 246.723 62.2398 245.53 61.6166Z" fill="#F5CB5C"/>
<path d="M223.679 65.1504C231.843 65.1504 238.461 58.3472 238.461 49.9551C238.461 41.5629 231.843 34.7598 223.679 34.7598C215.516 34.7598 208.898 41.5629 208.898 49.9551C208.898 58.3472 215.516 65.1504 223.679 65.1504Z" fill="#A1616A"/>
<path d="M238.717 57.0932C239.454 56.3947 240.379 55.9422 241.371 55.7954C242.363 55.6486 243.375 55.8144 244.273 56.2708C245.273 56.8041 246.148 57.8835 245.923 59.0143L253.255 59.13C254.422 59.0972 255.588 59.2072 256.73 59.4577C257.879 59.7148 258.904 60.3761 259.63 61.3274C259.717 61.4494 259.817 61.5972 259.967 61.6165C260.089 61.6185 260.209 61.5777 260.305 61.5008C261.433 60.9194 262.703 60.6957 263.955 60.8583C267.918 61.1218 271.58 63.1585 274.687 65.7029C275.247 66.0987 275.681 66.655 275.937 67.3027C276.193 68.1572 275.887 69.2302 276.562 69.8406C276.562 76.9082 278.924 83.5132 280.499 90.4009C280.78 91.6281 281.924 92.7139 282.718 93.6777C283.699 94.7461 284.499 95.9752 285.087 97.3143C286.424 100.887 284.58 105.089 285.88 108.674C286.43 110.19 287.493 111.437 288.381 112.754C289.55 114.275 290.29 116.098 290.518 118.022C290.574 118.883 290.468 119.751 290.518 120.592C290.602 121.75 290.812 122.894 291.143 124.004C291.676 126.077 292.235 128.148 292.818 130.217C293.768 133.558 295.006 137.163 297.918 138.942C290.887 140.17 283.474 141.371 276.774 138.859C275.839 138.531 274.952 138.075 274.137 137.503C271.718 135.73 270.549 132.697 269.505 129.832C268.343 126.619 267.161 123.349 266.924 119.931C266.926 118.843 266.777 117.762 266.48 116.718C265.799 114.855 263.98 113.73 262.33 112.696C260.467 111.646 258.779 110.297 257.33 108.7C256.611 107.895 256.06 106.947 255.712 105.915C255.364 104.883 255.225 103.788 255.305 102.699C255.43 101.638 255.836 100.617 255.874 99.5502C255.911 98.4837 255.449 97.2629 254.455 96.9802C249.336 95.3868 246.892 89.1544 245.755 83.7831C245.264 81.0069 245.044 78.1873 245.098 75.3662L245.03 69.8856C244.323 69.2249 243.755 68.4234 243.36 67.5298C242.964 66.6362 242.75 65.6692 242.73 64.6877C242.798 64.115 242.787 63.5354 242.698 62.9658C242.451 62.2695 242.049 61.6424 241.523 61.1346C240.393 59.9423 239.447 58.5794 238.717 57.0932Z" fill="#464353"/>
<path d="M222.973 74.4668C222.804 76.163 223.179 77.9042 222.811 79.5683C222.667 80.2108 222.417 80.8533 222.235 81.4508C221.681 83.846 221.921 86.3628 222.917 88.602C223.911 90.8191 225.101 92.9376 226.473 94.9307C226.937 95.6111 227.319 96.3467 227.611 97.1216C227.847 97.9353 227.994 98.7736 228.048 99.621C228.41 103.023 228.991 106.398 229.786 109.721C230.486 112.6 238.436 137.208 240.286 139.489C240.622 139.994 241.131 140.349 241.711 140.485C242.129 140.501 242.545 140.413 242.923 140.228L246.673 138.75C246.992 138.649 247.288 138.483 247.542 138.261C247.894 137.839 248.085 137.301 248.08 136.745C248.349 133.61 240.38 108.828 239.367 105.866C236.305 96.9224 232.229 88.3 230.236 79.0414C229.679 76.4714 229.386 72.5135 227.554 70.4639C226.798 69.6158 227.054 69.9756 226.148 70.419C225.69 70.6232 225.247 70.8616 224.823 71.1321C224.293 71.5112 223.851 72.0074 223.531 72.5843C223.211 73.1612 223.02 73.8044 222.973 74.4668Z" fill="#464353"/>
<path d="M234.354 91.4353C235.361 96.9031 236.398 102.358 237.43 107.826L252.105 103.874C252.224 102.294 251.405 100.829 250.855 99.3767C249.517 95.9265 249.486 92.0843 248.405 88.5376C247.586 85.8391 246.161 83.359 245.392 80.6412C244.948 79.0606 244.723 77.4286 244.286 75.8288C243.817 74.2577 243.24 72.7226 242.561 71.2349C241.737 69.0773 240.663 67.0299 239.361 65.1375C237.486 65.8571 235.486 66.6923 234.417 68.4335C233.869 69.4146 233.556 70.5159 233.504 71.6461C233.248 75.0321 234.442 78.4374 234.048 81.8041C233.643 85.0104 233.746 88.2631 234.354 91.4353Z" fill="#CFDBD5"/>
<path d="M252.349 164.167C253.174 167.38 251.98 170.759 251.005 173.94C249.537 178.73 248.536 183.659 248.017 188.653C247.954 189.924 247.705 191.178 247.28 192.373C246.817 193.446 246.03 194.352 245.492 195.374C244.017 198.06 244.055 201.336 244.373 204.408C244.586 206.432 244.905 208.449 245.298 210.441C245.78 212.876 246.373 215.42 245.68 217.798C246.842 217.534 247.63 219.083 247.555 220.297C247.48 221.511 247.098 222.867 247.667 223.914C249.105 224.454 249.117 226.484 249.074 228.058C249.097 230.788 249.433 233.505 250.074 236.154C252.249 246.905 254.557 257.627 256.999 268.318C262.28 270.001 268.449 271.755 273.486 269.423C274.424 268.993 275.362 268.305 275.574 267.264C275.629 266.703 275.561 266.137 275.374 265.607L272.986 256.676C272.405 254.517 271.824 252.287 272.13 250.071C272.361 248.42 273.061 246.64 272.274 245.181C272.005 244.68 271.58 244.288 271.268 243.813C270.018 241.93 270.674 239.412 270.774 237.131C270.813 236.619 270.779 236.104 270.674 235.601C270.503 235.015 270.263 234.452 269.961 233.925C267.988 229.987 267.041 225.59 267.211 221.164C267.286 220.599 267.21 220.024 266.993 219.5C266.841 219.284 266.705 219.056 266.586 218.819C266.493 218.407 266.539 217.974 266.718 217.592C266.001 217.033 265.355 216.386 264.793 215.664C265.139 215.443 265.432 215.143 265.65 214.788C265.867 214.433 266.004 214.032 266.048 213.615C266.093 213.198 266.044 212.776 265.907 212.38C265.77 211.985 265.547 211.627 265.255 211.334C265.51 211.281 265.746 211.157 265.936 210.975C266.126 210.792 266.264 210.56 266.333 210.302C266.402 210.044 266.401 209.772 266.328 209.515C266.256 209.258 266.116 209.027 265.924 208.847C265.618 208.629 265.211 208.533 264.993 208.205C264.655 207.729 264.93 207.068 265.205 206.56L266.661 203.855C267.749 201.844 267.993 199.358 269.161 197.43C270.836 194.622 271.93 191.493 273.011 188.396L277.218 176.465L280.049 178.99C280.992 179.731 281.782 180.657 282.374 181.714C282.777 182.759 283.031 183.859 283.13 184.978C284.168 191.455 288.13 197.07 289.599 203.45C289.924 204.87 290.143 206.361 290.937 207.575C291.221 207.948 291.476 208.343 291.699 208.757C291.906 209.389 292.014 210.051 292.018 210.717C292.149 212.022 292.552 213.283 293.199 214.414C293.846 215.544 294.722 216.519 295.768 217.271C297.162 218.254 298.893 218.928 299.649 220.483C299.801 220.965 300.011 221.425 300.274 221.852C300.949 222.687 302.406 222.783 302.693 223.831C302.856 224.415 302.556 225.116 302.875 225.63C303.056 225.868 303.295 226.052 303.568 226.163L307.637 228.251C312.187 230.59 314.512 235.961 317.869 239.874C319.028 241.149 320.054 242.544 320.931 244.038C322.381 246.704 323.05 250.051 325.5 251.748C326.159 252.099 326.758 252.556 327.275 253.103C328.044 254.144 327.762 255.603 327.831 256.913C327.9 258.224 328.875 259.785 330.088 259.387C329.663 260.975 329.663 262.651 330.088 264.238C335.411 263.957 340.487 261.843 344.5 258.237C345.688 257.17 346.832 255.808 346.844 254.189C346.862 253.91 346.802 253.631 346.669 253.386C346.429 253.07 346.112 252.824 345.75 252.673C341.944 250.553 340.8 245.637 338.875 241.647C337.194 238.127 334.706 235.094 332.625 231.824C328.1 224.788 325.012 216.275 318.169 211.629C316.662 210.608 314.912 209.702 314.156 208.012C313.737 207.068 313.687 205.988 313.356 205.012C313.025 204.035 312.231 203.084 311.218 203.084C311.781 201.671 311.668 199.949 311.706 198.419C311.744 197.741 311.668 197.06 311.481 196.408C311.221 195.707 310.883 195.039 310.475 194.417C308.689 191.309 307.796 187.744 307.9 184.137C307.95 182.28 308.268 180.365 307.725 178.592C307.45 177.699 306.968 176.883 306.637 176.022C306.138 174.462 305.874 172.832 305.856 171.19L305.481 165.015C305.424 162.959 305.165 160.914 304.706 158.912C303.456 154.119 302.206 134.04 297.924 131.778C293.643 129.517 286.287 144.969 281.468 145.271C279.336 145.362 277.229 145.78 275.218 146.511C272.011 147.745 269.324 150.045 266.705 152.294L257.842 159.946C255.967 161.533 254.417 163.049 252.349 164.167Z" fill="#464353"/>
<path d="M209.81 33.0828C211.76 30.3457 215.11 28.8937 218.41 28.7716C221.71 28.6495 224.961 29.7161 227.917 31.226C228.789 31.7361 229.722 32.1291 230.692 32.3953C232.254 32.723 233.992 32.2861 235.404 33.0378C237.28 34.0594 237.642 36.6616 237.48 38.8204C237.317 40.9793 236.923 43.3758 238.042 45.2455C238.439 45.7787 238.8 46.339 239.123 46.9225C239.605 48.034 239.323 49.319 239.036 50.4948C238.305 49.8523 237.892 48.8821 237.242 48.1368C236.592 47.3915 235.461 46.8903 234.654 47.4493C233.848 48.0083 233.861 49.0235 233.817 49.9358C233.773 50.8482 233.548 51.9405 232.711 52.236C232.361 52.3178 231.995 52.2899 231.661 52.1559C231.327 52.0219 231.039 51.788 230.836 51.4843C229.404 49.6853 229.979 46.8132 228.561 45.0014C227.754 43.9734 226.411 43.4722 225.667 42.3928C225.079 41.5447 224.929 40.4652 224.417 39.5529C223.904 38.6405 222.71 37.9723 221.917 38.602C221.646 38.868 221.42 39.1785 221.248 39.5208C220.753 40.2496 220.033 40.7856 219.205 41.042C218.378 41.2985 217.49 41.2606 216.685 40.9343C216.071 40.5464 215.406 40.2501 214.71 40.0541C214.255 40.0306 213.803 40.1385 213.404 40.3656C213.005 40.5927 212.676 40.9299 212.454 41.3391C212.005 42.1566 211.789 43.0871 211.829 44.0248C211.829 45.3098 212.054 46.6783 211.342 47.7063C211.071 48.0933 210.731 48.4246 210.342 48.6829C209.298 49.3704 207.841 49.833 206.879 49.0492C206.553 48.7368 206.31 48.3434 206.174 47.9069C206.039 47.4703 206.014 47.0052 206.104 46.5562C206.291 45.662 206.538 44.7818 206.841 43.9219C207.391 41.9302 206.673 39.6878 207.273 37.8117C207.901 36.1221 208.755 34.5305 209.81 33.0828Z" fill="#333333"/>
<path d="M217.729 78.4118C217.635 78.8801 217.683 79.3667 217.867 79.8061C218.052 80.1053 218.305 80.3543 218.604 80.5321C220.706 81.8781 223.096 82.6745 225.567 82.8515C225.903 82.8575 226.233 82.9456 226.529 83.1086C227.117 83.5069 227.154 84.3936 226.936 85.1003C226.644 85.767 226.493 86.4896 226.492 87.2206C226.673 88.5634 228.223 89.1481 229.529 89.3473C231.361 89.585 233.367 89.463 234.817 88.2872C235.799 87.3662 236.548 86.2127 236.998 84.9269C240.586 76.4522 241.842 67.0844 245.473 58.6354C245.749 58.0837 245.932 57.4887 246.017 56.8749C246.056 56.5677 246.013 56.2555 245.894 55.9707C245.776 55.686 245.585 55.4391 245.342 55.2558C244.667 54.8253 243.617 55.0695 243.161 54.3948C242.936 54.0543 242.961 53.5917 242.761 53.2319C242.342 52.4673 241.242 52.5894 240.492 52.1461C239.905 51.8248 239.498 51.163 238.842 51.0345C238.52 51.0158 238.198 51.0746 237.902 51.2062C237.606 51.3378 237.343 51.5386 237.136 51.7927C235.004 53.8359 233.886 56.7336 232.698 59.4707C230.885 63.6662 228.762 67.713 226.348 71.5755C226.629 71.1258 224.998 67.7205 224.361 67.5727C223.242 67.3414 221.81 69.3589 221.204 70.1106C219.302 72.4818 218.096 75.3614 217.729 78.4118Z" fill="#CFDBD5"/>
<path opacity="0.1" d="M240.436 52.7435C239.987 52.7512 239.545 52.8626 239.144 53.0695C238.743 53.2764 238.392 53.5734 238.117 53.9386C237.448 54.8317 237.317 56.0139 237.148 57.1511C236.579 60.7541 235.329 64.2074 233.467 67.3156" fill="black"/>
<path opacity="0.1" d="M243.623 55.3071C243.004 55.3213 242.398 55.5012 241.867 55.829C241.335 56.1569 240.896 56.6214 240.592 57.1768C240.178 58.1874 239.921 59.2584 239.83 60.3508C239.294 62.7728 238.26 65.0489 236.798 67.0265" fill="black"/>
<path d="M392.164 180.918V172.938C392.162 167.063 389.891 161.43 385.85 157.277C381.808 153.124 376.328 150.79 370.613 150.79H64.0512C58.3368 150.79 52.8563 153.124 48.815 157.277C44.7737 161.43 42.5025 167.063 42.5008 172.938V187.651L392.164 180.918Z" fill="#33323D"/>
<path d="M149.334 141.435C149.334 141.435 148.459 197.244 158.084 215.607C167.709 233.97 171.835 313.853 171.835 313.853C171.835 313.853 272.736 324.583 343.05 301.003C413.364 277.422 562.979 267.778 562.979 267.778L537.766 93.0866C537.766 93.0866 413.208 84.8754 342.35 119.616C271.493 154.356 149.334 141.435 149.334 141.435Z" fill="#8DD070"/>
<path opacity="0.1" d="M149.334 141.435C149.334 141.435 148.459 197.244 158.084 215.607C167.709 233.97 171.835 313.853 171.835 313.853C171.835 313.853 272.736 324.583 343.05 301.003C413.364 277.422 562.979 267.778 562.979 267.778L537.766 93.0866C537.766 93.0866 413.208 84.8754 342.35 119.616C271.493 154.356 149.334 141.435 149.334 141.435Z" fill="black"/>
<path d="M171.666 161.822C171.666 161.822 168.509 207.871 176.428 222.584C184.347 237.298 184.716 302.981 184.716 302.981C184.716 302.981 275.524 307.312 340.119 284.708C404.714 262.105 540.454 247.443 540.454 247.443L525.029 104.581C525.029 104.581 412.714 103.392 347.163 135.209C281.612 167.026 171.666 161.822 171.666 161.822Z" fill="#8DD070"/>
<path opacity="0.1" d="M346.165 258.552C359.086 256.897 366.762 232.463 363.31 203.976C359.859 175.489 346.587 153.737 333.666 155.391C320.746 157.045 313.069 181.48 316.521 209.967C319.973 238.454 333.245 260.206 346.165 258.552Z" fill="black"/>
<path opacity="0.2" d="M469.478 7.98633C469.478 7.98633 348.469 39.4693 291.406 94.8856C234.342 150.302 114.215 176.542 114.215 176.542C114.215 176.542 130.04 229.928 144.678 244.372C159.316 258.815 187.079 333.552 187.079 333.552C187.079 333.552 286.312 311.925 346.188 267.284C406.064 222.642 545.61 166.262 545.61 166.262L469.478 7.98633Z" fill="black"/>
<path d="M112.396 168.549C112.396 168.549 128.215 221.942 142.84 236.385C157.466 250.829 185.241 325.559 185.241 325.559C185.241 325.559 284.487 303.939 344.369 259.297C404.251 214.656 543.785 158.295 543.785 158.295L467.653 0C467.653 0 346.65 31.4829 289.587 86.8993C232.523 142.316 112.396 168.549 112.396 168.549Z" fill="#8DD070"/>
<path opacity="0.1" d="M112.396 168.549C112.396 168.549 128.215 221.942 142.84 236.385C157.466 250.829 185.241 325.559 185.241 325.559C185.241 325.559 284.487 303.939 344.369 259.297C404.251 214.656 543.785 158.295 543.785 158.295L467.653 0C467.653 0 346.65 31.4829 289.587 86.8993C232.523 142.316 112.396 168.549 112.396 168.549Z" fill="black"/>
<path d="M139.715 180.911C139.715 180.911 150.459 225.739 162.391 237.24C174.322 248.741 194.266 311.128 194.266 311.128C194.266 311.128 281.98 286.597 336.713 244.706C391.445 202.814 516.272 146.1 516.272 146.1L458.953 14.9512C458.953 14.9512 351.707 49.2419 298.812 100.206C245.917 151.169 139.715 180.911 139.715 180.911Z" fill="#8DD070"/>
<path opacity="0.1" d="M334.689 217.925C346.493 212.275 346.505 186.598 334.716 160.574C322.927 134.55 303.802 118.034 291.999 123.684C280.196 129.335 280.184 155.012 291.972 181.035C303.761 207.059 322.886 223.575 334.689 217.925Z" fill="black"/>
<path opacity="0.1" d="M400.439 188.75V410.415C400.439 412.933 399.957 415.426 399.019 417.751C398.082 420.077 396.708 422.19 394.976 423.97C393.244 425.75 391.188 427.161 388.925 428.124C386.663 429.087 384.238 429.582 381.789 429.581H61.1574C56.2138 429.58 51.4732 427.56 47.9781 423.965C44.483 420.371 42.5196 415.497 42.5196 410.415V166.403C51.7073 169.911 51.7072 169.911 61.1574 169.616H381.789C386.729 169.616 391.467 171.631 394.963 175.218C398.46 178.805 400.429 183.672 400.439 188.75Z" fill="black"/>
<path d="M400.439 191.57V413.236C400.437 418.32 398.472 423.195 394.974 426.789C391.477 430.383 386.734 432.402 381.789 432.402H61.1574C56.2138 432.4 51.4732 430.38 47.9781 426.786C44.483 423.192 42.5196 418.318 42.5196 413.236V169.218C51.7073 172.719 51.7072 172.719 61.1574 172.43H381.789C386.73 172.43 391.469 174.446 394.965 178.034C398.462 181.623 400.431 186.491 400.439 191.57Z" fill="#504F60"/>
<path opacity="0.1" d="M399.526 273.522V344.41H332.65C323.586 344.285 314.935 340.495 308.568 333.862C302.202 327.229 298.632 318.285 298.632 308.966C298.632 299.648 302.202 290.704 308.568 284.071C314.935 277.437 323.586 273.648 332.65 273.522H399.526Z" fill="black"/>
<path d="M400.439 271.633V342.534H333.563C324.499 342.409 315.847 338.619 309.481 331.986C303.114 325.353 299.545 316.409 299.545 307.09C299.545 297.772 303.114 288.828 309.481 282.195C315.847 275.561 324.499 271.772 333.563 271.646L400.439 271.633Z" fill="#33323D"/>
<path opacity="0.1" d="M336.769 322.79C344.194 322.79 350.213 316.602 350.213 308.97C350.213 301.337 344.194 295.149 336.769 295.149C329.344 295.149 323.325 301.337 323.325 308.97C323.325 316.602 329.344 322.79 336.769 322.79Z" fill="black"/>
<path d="M337.681 320.914C345.106 320.914 351.125 314.726 351.125 307.093C351.125 299.461 345.106 293.273 337.681 293.273C330.257 293.273 324.237 299.461 324.237 307.093C324.237 314.726 330.257 320.914 337.681 320.914Z" fill="#F5CB5C"/>
<path d="M516.522 271.023C517.054 276.94 512.697 282.684 513.966 288.48C514.241 289.72 514.76 290.889 514.947 292.142C515.472 295.586 513.479 298.844 511.572 301.722L495.197 326.42C494.541 327.506 493.756 328.503 492.859 329.388C489.734 332.254 485.034 331.958 480.922 332.813C478.031 333.416 475.301 334.657 472.922 336.45C472.822 336.537 472.759 336.66 472.745 336.794C472.731 336.928 472.767 337.062 472.847 337.169C473.526 338.121 474.427 338.882 475.466 339.384C476.505 339.885 477.65 340.111 478.797 340.041C479.228 340.626 478.797 341.48 478.172 341.898C477.29 342.541 476.084 342.695 475.909 344.224C475.847 344.758 475.952 345.298 476.209 345.766C476.869 346.805 477.895 347.54 479.072 347.816C484.74 349.595 490.866 346.466 495.109 342.206C499.353 337.947 502.397 332.569 506.56 328.232C508.866 325.835 511.485 323.779 513.86 321.453C518.597 316.815 522.279 311.173 525.835 305.526C526.904 303.823 527.979 302.075 528.429 300.103C528.879 298.13 528.666 296.139 529.173 294.23C529.835 291.725 531.616 289.733 533.098 287.632C536.004 283.52 537.941 278.489 537.56 273.426C537.179 268.363 534.123 263.358 529.473 261.636C528.032 261.041 526.442 260.942 524.941 261.353C523.035 261.957 521.629 263.576 520.329 265.125L517.204 268.819C516.424 269.63 515.808 270.59 515.391 271.646C515.191 272.176 515.143 272.754 515.254 273.312C515.365 273.869 515.63 274.381 516.016 274.788" fill="#FBBEBE"/>
<path opacity="0.05" d="M516.522 271.023C517.054 276.94 512.697 282.684 513.966 288.48C514.241 289.72 514.76 290.889 514.947 292.142C515.472 295.586 513.479 298.844 511.572 301.722L495.197 326.42C494.541 327.506 493.756 328.503 492.859 329.388C489.734 332.254 485.034 331.958 480.922 332.813C478.031 333.416 475.301 334.657 472.922 336.45C472.822 336.537 472.759 336.66 472.745 336.794C472.731 336.928 472.767 337.062 472.847 337.169C473.526 338.121 474.427 338.882 475.466 339.384C476.505 339.885 477.65 340.111 478.797 340.041C479.228 340.626 478.797 341.48 478.172 341.898C477.29 342.541 476.084 342.695 475.909 344.224C475.847 344.758 475.952 345.298 476.209 345.766C476.869 346.805 477.895 347.54 479.072 347.816C484.74 349.595 490.866 346.466 495.109 342.206C499.353 337.947 502.397 332.569 506.56 328.232C508.866 325.835 511.485 323.779 513.86 321.453C518.597 316.815 522.279 311.173 525.835 305.526C526.904 303.823 527.979 302.075 528.429 300.103C528.879 298.13 528.666 296.139 529.173 294.23C529.835 291.725 531.616 289.733 533.098 287.632C536.004 283.52 537.941 278.489 537.56 273.426C537.179 268.363 534.123 263.358 529.473 261.636C528.032 261.041 526.442 260.942 524.941 261.353C523.035 261.957 521.629 263.576 520.329 265.125L517.204 268.819C516.424 269.63 515.808 270.59 515.391 271.646C515.191 272.176 515.143 272.754 515.254 273.312C515.365 273.869 515.63 274.381 516.016 274.788" fill="black"/>
<path d="M528.916 423.362C525.341 425.604 520.885 425.739 516.729 425.219C516.06 425.135 515.266 425.084 514.854 425.617C514.229 426.388 514.966 427.545 515.729 428.142C518.18 430.034 521.06 431.253 524.097 431.682C526.809 432.078 529.546 432.264 532.285 432.241C539.785 432.376 547.285 432.505 554.667 431.4C555.104 431.366 555.53 431.239 555.917 431.027C556.393 430.684 556.723 430.167 556.842 429.581C557.348 427.602 556.373 425.482 554.898 424.107C553.423 422.732 551.529 421.968 549.679 421.229L543.179 418.627C541.654 418.016 539.21 416.397 537.554 416.526C534.441 416.757 531.498 421.807 528.916 423.362Z" fill="#3F3D56"/>
<path opacity="0.8" d="M528.916 423.362C525.341 425.604 520.885 425.739 516.729 425.219C516.06 425.135 515.266 425.084 514.854 425.617C514.229 426.388 514.966 427.545 515.729 428.142C518.18 430.034 521.06 431.253 524.097 431.682C526.809 432.078 529.546 432.264 532.285 432.241C539.785 432.376 547.285 432.505 554.667 431.4C555.104 431.366 555.53 431.239 555.917 431.027C556.393 430.684 556.723 430.167 556.842 429.581C557.348 427.602 556.373 425.482 554.898 424.107C553.423 422.732 551.529 421.968 549.679 421.229L543.179 418.627C541.654 418.016 539.21 416.397 537.554 416.526C534.441 416.757 531.498 421.807 528.916 423.362Z" fill="#242423"/>
<path d="M533.473 334.657C530.766 338.358 527.966 342.631 528.635 347.212C528.998 349.679 530.341 351.857 531.329 354.138C532.666 357.235 533.366 360.563 534.054 363.878C535.066 368.723 536.085 373.58 536.704 378.502C537.41 384.06 534.091 400.142 533.785 405.738C533.71 407.087 533.554 408.546 532.641 409.516C532.285 409.901 531.81 410.21 531.648 410.711C531.552 411.194 531.63 411.696 531.866 412.124C533.391 415.658 536.51 418.292 539.992 419.796C543.473 421.299 551.867 423.895 555.661 424.03C556.161 424.087 556.667 424.018 557.136 423.831C557.64 423.514 558.038 423.045 558.273 422.488C560.992 417.142 558.379 398.137 558.417 392.104C558.454 387.073 559.611 382.074 559.398 377.05C559.223 373.015 558.148 369.07 557.792 365.048C557.167 358.456 558.342 351.831 559.523 345.316C560.423 340.318 561.329 335.319 562.486 330.384C563.192 327.371 564.011 324.332 565.611 321.717C566.861 319.642 568.617 317.907 570.073 315.934C574.115 310.487 575.911 303.623 575.073 296.826C574.986 296.184 565.698 299.248 564.879 299.615C561.539 301.069 558.465 303.101 555.792 305.622C553.642 307.73 551.948 310.544 550.067 312.902C547.404 316.238 544.775 319.599 542.179 322.983C539.217 326.851 536.314 330.742 533.473 334.657Z" fill="#464353"/>
<path opacity="0.8" d="M533.473 334.432C530.766 338.133 527.966 342.412 528.635 346.987C528.998 349.46 530.341 351.639 531.329 353.919C532.666 357.01 533.366 360.345 534.054 363.653C535.066 368.504 536.085 373.362 536.704 378.277C537.41 383.841 534.091 399.917 533.785 405.513C533.71 406.862 533.554 408.327 532.641 409.297C532.285 409.676 531.81 409.985 531.648 410.486C531.552 410.969 531.63 411.471 531.866 411.899C533.391 415.44 536.51 418.067 539.992 419.61C543.473 421.152 551.867 422.494 555.661 422.623C556.161 422.68 556.667 422.611 557.136 422.424C557.641 422.111 558.039 421.644 558.273 421.087C560.992 415.742 558.379 397.957 558.417 391.917C558.454 386.88 559.611 381.888 559.398 376.857C559.223 372.822 558.148 368.877 557.792 364.861C557.167 358.263 558.342 351.639 559.523 345.124C560.423 340.131 561.329 335.133 562.486 330.192C563.192 327.178 564.011 324.139 565.611 321.524C566.861 319.449 568.617 317.714 570.073 315.742C574.117 310.294 575.913 303.431 575.073 296.633C574.986 295.991 565.698 299.056 564.88 299.422C561.54 300.881 558.466 302.914 555.792 305.436C553.642 307.537 551.948 310.351 550.067 312.709C547.404 316.046 544.775 319.408 542.179 322.796C539.217 326.634 536.314 330.513 533.473 334.432Z" fill="#333333"/>
<path d="M503.36 253.148C511.737 253.148 518.529 246.167 518.529 237.555C518.529 228.943 511.737 221.961 503.36 221.961C494.982 221.961 488.191 228.943 488.191 237.555C488.191 246.167 494.982 253.148 503.36 253.148Z" fill="#FBBEBE"/>
<path d="M517.022 236.899C518.424 239.197 520.261 241.182 522.425 242.734C524.589 244.286 527.035 245.374 529.616 245.933L528.473 250.206C526.498 257.543 524.279 265.305 518.766 270.393C519.391 267.907 518.591 265.253 517.229 263.094C515.866 260.936 513.954 259.239 512.079 257.562L503.347 249.788C503.095 249.577 502.883 249.32 502.722 249.03C502.507 248.482 502.507 247.869 502.722 247.321C503.835 243.761 507.01 241.538 509.597 239.135C510.896 237.893 512.055 236.505 513.054 234.998C514.797 232.44 515.879 235.01 517.022 236.899Z" fill="#FBBEBE"/>
<path d="M483.378 221.877L483.034 218.948C485.428 219.59 487.703 217.496 489.234 215.33C490.766 213.165 492.184 210.614 494.516 209.708C497.347 208.616 500.347 210.351 503.053 211.816C506.083 213.544 509.408 214.657 512.847 215.093C513.396 215.111 513.94 215.202 514.466 215.362C516.229 216.005 517.066 218.279 517.322 220.342C517.579 222.404 517.51 224.595 518.379 226.433C519.004 227.827 520.166 228.862 520.879 230.237C522.754 233.925 520.941 238.968 522.898 242.586L518.035 238.004C517.591 237.587 516.966 237.15 516.472 237.503C516.085 237.786 516.054 238.396 515.897 238.885C515.429 240.311 513.691 240.735 512.435 240.17C511.179 239.604 510.26 238.377 509.31 237.259C507.16 234.651 504.597 232.357 501.597 231.245C500.282 230.74 498.878 230.528 497.477 230.623C496.076 230.718 494.711 231.119 493.472 231.798C491.203 233.115 489.541 236.186 486.759 236.295C482.947 236.443 481.359 229.144 479.597 226.259C480.242 225.761 480.695 225.044 480.878 224.236C481.061 223.428 480.961 222.579 480.597 221.839C480.853 221.73 483.322 221.428 483.378 221.877Z" fill="#333333"/>
<path d="M295.756 130.712C294.537 131.826 293.41 133.043 292.387 134.349C291.357 135.673 290.809 137.325 290.837 139.02C290.842 139.511 290.995 139.989 291.274 140.388C291.417 140.579 291.614 140.72 291.838 140.79C292.062 140.86 292.302 140.857 292.524 140.78C292.775 140.648 292.99 140.454 293.149 140.215C293.81 139.399 294.511 138.618 295.249 137.876C295.518 137.6 295.874 137.311 296.237 137.413C296.399 137.473 296.545 137.572 296.662 137.702C297.082 138.076 297.389 138.567 297.543 139.116C297.762 140.099 297.206 141.082 296.574 141.853C295.943 142.624 295.199 143.363 294.943 144.333C294.846 144.589 294.846 144.874 294.943 145.13C295.064 145.315 295.233 145.462 295.431 145.554C296.326 146.06 297.318 146.359 298.338 146.428C299.357 146.496 300.379 146.334 301.331 145.952C302.581 145.432 303.693 144.539 304.981 144.076C305.538 143.919 306.079 143.704 306.593 143.434C306.962 143.182 307.278 142.857 307.523 142.479C307.769 142.101 307.939 141.676 308.025 141.23C308.187 140.338 308.219 139.426 308.118 138.525C307.963 135.034 307.236 131.596 305.968 128.354C305.895 128.145 305.77 127.959 305.606 127.814C305.418 127.696 305.201 127.636 304.981 127.641C303.381 127.467 300.756 126.626 299.212 127.236C298.672 127.54 298.206 127.966 297.849 128.482C297.562 128.81 295.756 130.281 295.756 130.712Z" fill="#A1616A"/>
<path d="M295.249 129.26C295.249 127.692 293.374 123.908 296.356 123.657C296.356 121.98 294.049 120.939 294.481 119.16C294.618 118.569 295.106 118.087 295.162 117.483C295.349 115.767 292.337 114.836 292.837 113.191C293.024 112.548 293.687 112.176 293.831 111.54C294.168 110.055 291.587 109.394 291.537 107.871C291.537 107.357 291.818 106.875 291.793 106.361C291.793 105.718 291.249 105.23 290.949 104.671C290.168 103.238 290.549 101.022 289.124 100.283C290.068 100.366 290.374 98.9271 289.987 98.0469C289.599 97.1666 288.806 96.4021 288.799 95.4254C288.846 95.0715 288.846 94.7128 288.799 94.3589C288.537 93.4208 287.043 93.3437 286.793 92.4313C286.761 92.0812 286.75 91.7292 286.762 91.3776C286.662 90.6516 285.937 90.189 285.255 89.9834C284.548 89.8598 283.867 89.6098 283.243 89.2445C282.805 88.904 282.299 88.3386 281.83 88.602C281.655 88.7112 281.568 88.9168 281.437 89.071C280.874 89.7457 279.799 89.4501 279.093 88.9554C277.005 87.4969 275.968 84.8819 275.524 82.3311C275.08 79.7804 275.093 77.1461 274.537 74.621C274.367 73.8341 274.141 73.061 273.862 72.308C273.624 71.6655 272.861 70.6567 272.811 70.0078C272.699 68.53 275.674 69.5388 276.805 69.6865C277.904 69.7968 278.99 70.0119 280.049 70.3291C281.18 70.7683 282.288 71.268 283.368 71.8261C287.881 73.8757 293.331 74.1263 296.956 77.5701C298.149 78.7009 299.156 80.1851 300.706 80.6991C301.417 80.8392 302.118 81.0259 302.806 81.2581C304.525 82.087 304.793 84.4321 305.731 86.1283C306.026 86.5763 306.283 87.0492 306.5 87.5419C306.68 88.1229 306.765 88.7311 306.75 89.3409L306.881 93.7935C307.093 101.253 307.306 108.732 306.531 116.146C306.281 118.594 305.906 121.113 306.612 123.465C306.8 124.107 307.062 124.711 307.237 125.36C307.392 126.121 307.471 126.896 307.475 127.673L307.575 130.558C307.609 130.782 307.56 131.012 307.437 131.2C307.333 131.288 307.21 131.35 307.08 131.382C306.949 131.414 306.812 131.416 306.681 131.387C302.775 131.027 298.824 128.765 295.137 130.134" fill="#464353"/>
<path d="M473.515 350.925C499.045 350.925 519.741 347.85 519.741 344.057C519.741 340.264 499.045 337.188 473.515 337.188C447.985 337.188 427.289 340.264 427.289 344.057C427.289 347.85 447.985 350.925 473.515 350.925Z" fill="#504F60"/>
<path d="M513.285 344.391C512.472 340.812 511.966 337.67 511.966 337.67C511.966 337.67 512.154 333.777 510.453 330.853V329.877V322.681C510.937 321.374 511.529 320.112 512.222 318.909C513.472 316.647 512.222 308.359 512.222 308.359C512.222 308.359 507.553 296.672 508.685 289.257C509.816 281.843 499.097 256.335 499.097 256.335C499.163 253.875 499.501 251.431 500.103 249.049C500.218 248.548 500.264 248.034 500.241 247.52C500.241 247.456 500.241 247.398 500.241 247.334C500.241 247.269 500.241 247.372 500.241 247.391C500.078 242.502 496.316 233.34 496.316 233.34L496.822 215.876C496.822 215.876 499.222 205.596 495.309 191.75C493.941 186.925 493.066 183.064 492.509 180.082C492.447 179.748 492.384 179.44 492.334 179.112C500.391 177.827 506.547 176.799 506.547 176.799C506.547 176.799 501.872 156.695 498.716 153.174C495.559 149.653 493.034 138.595 493.034 138.595C493.034 138.595 491.391 124.402 494.047 120.252C496.703 116.101 497.078 108.944 497.078 108.944C497.078 108.944 503.135 104.446 503.897 102.409C504.66 100.373 505.916 95.8751 505.916 93.4914C505.916 91.1077 505.16 88.9938 505.41 87.7088C505.66 86.4238 503.641 81.6756 504.653 79.414C504.915 78.7193 505.051 77.981 505.053 77.2359C505.056 77.2146 505.056 77.193 505.053 77.1716C505.063 75.1925 504.885 73.2171 504.522 71.2734C502.77 69.7526 500.726 68.6294 498.522 67.9773L498.391 67.4376L498.047 66.0241C497.855 65.8937 497.657 65.7736 497.453 65.6643V65.1503L497.397 63.1071L498.347 58.5196C500.222 50.5397 489.853 49.351 489.853 49.351C489.224 48.127 488.178 47.1844 486.916 46.7039C484.834 45.9521 486.572 58.7059 487.541 59.5541C488.272 60.1966 490.534 64.1673 491.628 66.1333L491.803 66.4546C491.632 66.6128 491.473 66.7847 491.328 66.9686L491.722 69.7378L491.784 70.1619C491.097 71.0391 490.539 72.0155 490.128 73.0596C490.128 73.0596 492.003 75.1927 491.647 77.5572C491.291 79.9216 492.228 82.9221 492.272 83.0827C492.159 82.9478 490.828 81.47 489.497 81.8298C488.166 82.1896 484.447 83.3397 484.447 83.3397C484.447 83.3397 481.672 83.8409 481.947 84.4705C482.222 85.1002 480.072 87.863 480.072 87.863L472.609 80.5898C472.534 80.3713 472.453 80.1529 472.39 79.9473C472.086 78.8986 471.876 77.8232 471.765 76.7347C472.579 76.536 473.377 76.2762 474.153 75.9573C474.937 75.6805 475.645 75.2133 476.215 74.5952C476.972 73.6764 477.115 72.4299 477.422 71.2863C478.009 69.0503 479.297 67.065 480.19 64.9383C481.704 61.3446 482.192 57.3824 481.597 53.5145C481.482 52.3225 481.09 51.1765 480.453 50.1734C479.234 48.4515 477.022 47.7512 475.415 46.3762C473.809 45.0012 472.772 42.9002 470.896 41.8786C469.203 40.947 467.146 41.0562 465.234 41.3775C461.498 42.0107 457.91 43.3528 454.652 45.3353C453.565 45.9778 452.365 46.7681 451.115 46.5304C450.04 46.3312 449.24 45.451 448.565 44.6029C448.572 44.5678 448.583 44.5334 448.596 44.5001C448.566 44.4688 448.538 44.4343 448.515 44.3973C447.724 46.2017 447.327 48.1623 447.352 50.1413C447.352 50.4497 447.352 50.7838 447.39 51.0601V51.3813C447.39 51.4713 447.39 51.5612 447.39 51.6448C447.39 51.7817 447.371 51.918 447.334 52.0496C447.176 52.4426 446.937 52.7956 446.634 53.084C446.404 53.3519 446.195 53.6376 446.009 53.9385C446.009 53.8357 446.071 53.7329 446.109 53.6237C445.632 54.3391 445.363 55.1793 445.333 56.046C445.299 56.6769 445.5 57.2976 445.896 57.7807C446.27 58.1543 446.678 58.4899 447.115 58.783C446.966 59.6312 446.891 60.4913 446.89 61.3531C446.904 63.908 447.559 66.416 448.792 68.6345C450.025 70.853 451.794 72.7069 453.927 74.0169C454.015 74.229 454.096 74.4474 454.177 74.6594C455.134 77.2295 455.852 80.2493 455.534 83.012C455.534 83.2112 455.477 83.4168 455.446 83.616C455.415 83.8152 455.259 83.828 455.177 83.9373C455.177 83.9373 442.846 84.0658 439.946 81.3672C437.046 78.6687 432.621 87.9658 432.621 87.9658C432.621 87.9658 428.202 88.846 427.314 87.9658C426.427 87.0856 421.258 87.8437 421.258 87.8437C419.14 85.9077 416.385 84.8738 413.552 84.9524C411.835 83.6115 409.941 82.5297 407.927 81.7399L407.789 81.6885C406.9 81.3553 405.949 81.2324 405.008 81.3287C405.008 81.3287 398.945 76.1886 397.176 73.413C395.408 70.6373 386.989 60.3893 386.951 60.3443V59.8496L386.857 58.359C386.607 58.3993 386.354 58.4208 386.101 58.4232C386.057 58.2755 385.995 58.102 385.932 57.9028C385.447 56.4488 384.85 55.0372 384.145 53.6815C384.145 53.6815 384.145 51.799 384.676 51.3235C385.207 50.8481 384.457 43.9411 384.457 43.9411C384.457 43.9411 378.995 30.8146 374.101 40.6129C374.101 40.6129 364.851 46.9545 372.613 54.3433C372.613 54.3433 375.738 55.8853 376.151 57.1061C376.438 57.8964 377.488 60.113 378.195 61.6037L378.513 62.2462L378.426 62.3233L378.538 63.5569L378.588 64.0323C377.126 64.8869 376.132 65.735 376.376 66.3711C376.807 67.4596 377.103 68.5993 377.257 69.7635C377.257 69.7635 387.995 83.5903 389.382 89.495C389.382 89.495 418.177 107.087 427.646 108.34L425.971 117.11C425.727 119.49 425.601 121.881 425.596 124.274C425.721 126.157 424.458 134.702 424.458 134.702C424.458 134.702 422.814 147.269 421.427 149.03C420.039 150.79 420.289 158.327 420.289 158.327C419.962 161.935 419.334 165.507 418.414 169.005C417.027 173.779 418.033 179.69 418.033 179.69C418.033 179.69 413.239 190.998 424.727 183.333C424.727 183.333 430.352 182.974 436.865 182.742C436.865 182.961 436.865 183.186 436.865 183.385C436.865 184.246 436.865 185.177 436.821 186.154C436.733 192.63 436.696 201.574 436.983 208.308C437.49 220.245 441.027 243.871 441.027 243.871V255.763C440.799 256.879 440.686 258.016 440.69 259.156C440.615 263.34 441.699 267.46 443.815 271.036L444.702 278.952C444.702 278.952 446.777 284.169 446.815 287.304C446.807 287.557 446.778 287.808 446.727 288.056C446.646 288.455 446.613 288.863 446.627 289.27C446.509 292.868 448.615 301.478 448.615 301.478C448.615 301.478 448.74 310.145 450.002 310.653C451.084 311.083 448.559 315.645 447.809 316.956C447.788 316.876 447.774 316.794 447.765 316.712L447.609 316.969C447.348 317.67 447.215 318.415 447.215 319.166C447.144 319.758 447.237 320.358 447.485 320.898C447.733 321.437 448.125 321.892 448.615 322.212C451.015 323.721 452.302 324.974 450.265 325.476C449.515 325.595 448.773 325.756 448.04 325.957C448.04 325.861 447.965 325.758 447.934 325.668C447.646 325.784 447.406 325.998 447.255 326.274C447.103 326.55 447.049 326.872 447.102 327.185C447.122 328.204 447.377 329.204 447.846 330.102C449.865 334.753 451.265 336.527 451.265 336.527L452.234 336.417C452.091 336.798 451.902 337.159 451.671 337.49C451.302 338.029 450.814 338.47 450.246 338.775C449.717 339.101 449.127 339.309 448.515 339.386C447.83 339.409 447.158 339.58 446.542 339.887C445.926 340.195 445.38 340.633 444.94 341.172C443.69 342.849 442.89 345.13 445.377 347.135L454.409 350.347C454.409 350.347 469.946 352.422 469.121 348.837C468.296 345.252 467.796 342.117 467.796 342.117C467.863 339.928 467.435 337.752 466.546 335.762C466.383 335.437 466.2 335.124 465.996 334.824L466.546 334.766C466.546 334.766 467.684 326.844 469.196 325.341C469.546 324.994 469.628 324.698 469.546 324.518C469.703 324.088 469.303 323.837 468.796 323.689L468.684 324.004C468.189 323.893 467.684 323.835 467.178 323.831C467.178 323.831 466.671 319.687 468.315 318.177C468.448 318.005 468.545 317.806 468.599 317.594C468.654 317.382 468.666 317.16 468.634 316.943C468.646 316.374 468.588 315.806 468.459 315.253C468.443 315.289 468.424 315.323 468.403 315.356C467.578 311.591 464.778 305.609 464.778 305.609C464.778 305.609 464.653 301.844 465.665 300.334C466.678 298.824 465.534 279.851 465.534 279.851C465.534 279.851 465.915 270.682 464.778 266.41C463.64 262.137 466.165 257.106 466.165 257.106C466.165 257.106 466.165 257.01 466.165 256.836V256.772L466.021 255.326C466.018 255.356 466.018 255.387 466.021 255.416C465.765 252.988 465.284 248.587 464.928 246.556C464.421 243.665 465.059 229.851 465.059 229.851L467.328 223.94L471.372 234.124L475.665 247.693C475.665 247.693 477.79 250.559 477.84 253.476C477.84 253.617 477.84 253.759 477.84 253.9C477.806 254.201 477.789 254.503 477.79 254.806C477.714 256.52 478.172 258.215 479.097 259.644C479.097 259.644 480.234 266.069 482.003 267.682C483.772 269.295 483.772 272.456 483.772 272.456C483.772 272.456 485.916 281.759 486.897 283.378C487.747 284.753 487.791 288.518 487.784 289.694C487.784 289.906 487.784 290.028 487.784 290.028C487.784 290.028 488.084 293.357 488.072 296.145C488.072 296.492 488.072 296.826 488.072 297.141C488.075 297.117 488.075 297.094 488.072 297.07C488.071 297.832 487.983 298.591 487.809 299.332L487.772 299.46C487.772 299.3 487.772 299.146 487.816 298.991C487.376 300.885 487.166 302.827 487.191 304.774C487.134 308.115 487.628 312.073 489.597 314.412C493.009 318.434 495.153 317.932 495.153 317.932C495.153 317.932 493.516 322.957 491.491 323.966C491.414 324.003 491.343 324.05 491.278 324.107C491.278 324.004 491.241 323.908 491.228 323.811C491.002 324.062 490.83 324.358 490.723 324.682C490.615 325.005 490.574 325.347 490.603 325.688C490.459 327.898 491.816 331.47 493.103 333.134C493.581 333.616 494.167 333.969 494.809 334.162C494.708 334.236 494.601 334.303 494.491 334.361C494.266 334.488 494.034 334.602 493.797 334.702C493.468 334.846 493.121 334.939 492.766 334.978C492.08 334.997 491.407 335.166 490.79 335.474C490.174 335.782 489.628 336.222 489.191 336.764C487.941 338.435 487.141 340.716 489.628 342.72L498.66 345.933C498.66 345.933 514.097 347.97 513.285 344.391Z" fill="url(#paint0_linear)"/>
<path d="M453.965 350.328L445.215 347.115C442.802 345.111 443.571 342.83 444.79 341.153C445.209 340.618 445.735 340.182 446.333 339.874C446.93 339.566 447.585 339.393 448.252 339.367C448.845 339.289 449.414 339.081 449.921 338.756C450.476 338.447 450.951 338.006 451.309 337.471C451.947 336.43 452.291 335.226 452.302 333.995C452.302 333.995 461.903 331.104 464.528 333.995C464.996 334.519 465.388 335.11 465.69 335.749C466.562 337.745 466.989 339.916 466.94 342.104C466.94 342.104 467.428 345.239 468.221 348.824C469.015 352.41 453.965 350.328 453.965 350.328Z" fill="#242423"/>
<path d="M496.741 345.895L487.991 342.682C485.578 340.677 486.347 338.396 487.566 336.726C487.982 336.189 488.506 335.751 489.103 335.443C489.7 335.135 490.354 334.963 491.022 334.94C491.367 334.903 491.705 334.81 492.022 334.664C492.253 334.563 492.478 334.45 492.697 334.323C495.141 332.942 495.078 329.549 495.078 329.549C495.078 329.549 504.672 326.658 507.303 329.549C507.656 329.941 507.964 330.372 508.222 330.834C509.866 333.758 509.685 337.658 509.685 337.658C509.685 337.658 510.172 340.799 510.935 344.378C511.697 347.957 496.741 345.895 496.741 345.895Z" fill="#242423"/>
<path opacity="0.1" d="M464.534 333.989C465.002 334.512 465.394 335.103 465.696 335.743L451.321 337.458C451.96 336.417 452.304 335.213 452.315 333.982C452.315 333.982 461.909 331.098 464.534 333.989Z" fill="black"/>
<path opacity="0.1" d="M508.235 330.847V333.616C505.997 337.401 495.178 336.572 492.034 334.676C492.266 334.576 492.491 334.462 492.709 334.336C495.153 332.954 495.091 329.562 495.091 329.562C495.091 329.562 504.685 326.671 507.316 329.562C507.668 329.954 507.976 330.385 508.235 330.847Z" fill="black"/>
<path d="M509.941 318.909C509.272 320.116 508.701 321.377 508.235 322.681V332.608C505.785 336.752 493.078 335.37 491.359 333.109C489.641 330.847 487.847 324.962 489.778 323.94C491.709 322.918 493.322 317.907 493.322 317.907C493.322 317.907 491.241 318.408 487.941 314.386C484.641 310.364 485.622 301.446 486.234 299.313C486.847 297.18 486.234 290.016 486.234 290.016C486.234 290.016 486.359 284.985 485.384 283.353C484.409 281.721 482.328 272.43 482.328 272.43C482.328 272.43 482.328 269.288 480.615 267.656C478.903 266.024 477.803 259.612 477.803 259.612C476.802 258.01 476.371 256.1 476.584 254.209C476.947 251.067 474.503 247.674 474.503 247.674L470.346 234.098L466.434 223.921L464.234 229.825C464.234 229.825 463.609 243.646 464.115 246.531C464.621 249.415 465.365 257.087 465.365 257.087C465.365 257.087 462.921 262.111 464.021 266.384C465.121 270.657 464.721 279.838 464.721 279.838C464.721 279.838 465.821 298.805 464.84 300.315C463.859 301.825 463.984 305.596 463.984 305.596C463.984 305.596 468.984 316.648 467.409 318.157C465.834 319.667 466.309 323.812 466.309 323.812C466.309 323.812 469.728 323.812 468.265 325.321C466.803 326.831 465.696 334.747 465.696 334.747L450.915 336.527C450.915 336.527 449.565 334.773 447.609 330.102C445.652 325.431 447.971 325.958 449.94 325.45C451.909 324.942 450.665 323.696 448.34 322.186C446.015 320.676 447.365 317.284 447.365 317.284C447.365 317.284 450.909 311.128 449.684 310.627C448.459 310.126 448.34 301.452 448.34 301.452C448.34 301.452 445.896 291.172 446.508 288.384C447.121 285.595 444.552 278.964 444.552 278.964L443.696 271.049C441.081 266.557 440.127 261.247 441.008 256.091V243.883C441.008 243.883 437.583 220.265 437.096 208.327C436.783 200.681 436.871 190.247 436.971 183.738C437.033 180.089 437.096 177.667 437.096 177.667L489.897 172.012C489.897 172.012 489.847 174.518 490.853 180.076C491.397 183.057 492.241 186.919 493.566 191.744C497.353 205.564 495.034 215.864 495.034 215.864L494.541 233.333C494.541 233.333 499.185 245.014 498.21 249.036C497.62 251.425 497.289 253.872 497.222 256.335C497.222 256.335 507.61 281.843 506.51 289.257C505.41 296.672 509.928 308.359 509.928 308.359C509.928 308.359 511.166 316.648 509.941 318.909Z" fill="#464353"/>
<path opacity="0.05" d="M479.753 253.45L495.828 251.247C495.828 251.247 486.722 260.801 479.753 253.45Z" fill="black"/>
<path opacity="0.1" d="M493.503 235.1C493.503 235.1 494.053 240.947 490.572 243.145C490.572 243.145 496.803 242.142 493.503 235.1Z" fill="black"/>
<path opacity="0.1" d="M492.516 216.506C492.516 216.506 479.078 227.878 474.19 226.934C469.303 225.99 492.516 216.506 492.516 216.506Z" fill="black"/>
<path opacity="0.1" d="M459.828 258.783C459.828 258.783 449.621 261.167 449.315 265.382C449.009 269.597 459.828 258.783 459.828 258.783Z" fill="black"/>
<path opacity="0.05" d="M462.071 311.186C462.071 311.186 447.652 313.949 451.746 315.832C455.84 317.714 462.565 319.224 462.565 319.224C462.565 319.224 467.221 319.475 462.071 311.186Z" fill="black"/>
<g opacity="0.05">
<path opacity="0.05" d="M448.834 318.826C448.471 318.593 448.164 318.279 447.936 317.907C447.707 317.536 447.564 317.116 447.515 316.68L447.365 316.943C447.365 316.943 446.021 320.336 448.346 321.839C448.609 322.013 448.865 322.186 449.096 322.353C449.527 322.27 449.99 322.205 450.434 322.09C452.402 321.588 451.159 320.336 448.834 318.826Z" fill="black"/>
<path opacity="0.05" d="M467.409 317.817C467.809 317.444 467.796 316.48 467.553 315.247C466.928 316.217 466.746 317.733 466.734 318.883C466.886 318.484 467.115 318.121 467.409 317.817Z" fill="black"/>
<path opacity="0.05" d="M465.19 255.307C464.659 256.793 464.331 258.348 464.215 259.927C464.494 258.836 464.868 257.774 465.334 256.753L465.19 255.307Z" fill="black"/>
<path opacity="0.05" d="M498.216 248.715C498.312 248.264 498.356 247.802 498.347 247.34C498.166 248.278 498.041 249.146 497.947 249.91C498.028 249.518 498.116 249.146 498.216 248.715Z" fill="black"/>
<path opacity="0.05" d="M464.846 299.981C465.046 299.672 465.159 298.632 465.209 297.186C464.757 298.305 464.517 299.502 464.503 300.713C464.588 300.456 464.703 300.21 464.846 299.981Z" fill="black"/>
<path opacity="0.05" d="M467.846 323.677C467.089 326.197 466.526 328.775 466.165 331.387L451.384 333.141C451.384 333.141 450.034 331.387 448.077 326.716C447.92 326.355 447.78 325.986 447.659 325.61C446.771 326.028 446.409 326.973 447.584 329.729C449.54 334.381 450.896 336.154 450.896 336.154L465.678 334.394C465.678 334.394 466.778 326.478 468.24 324.968C468.99 324.242 468.528 323.863 467.846 323.677Z" fill="black"/>
<path opacity="0.05" d="M448.346 301.112C448.346 301.112 448.465 309.779 449.69 310.28C450.315 308.848 450.721 307.485 450.171 307.261C448.921 306.759 448.827 298.085 448.827 298.085C448.827 298.085 446.384 287.805 446.996 285.017C447.609 282.228 445.04 275.598 445.04 275.598L444.183 267.682C441.568 263.19 440.614 257.88 441.496 252.724V240.517C441.496 240.517 438.071 216.898 437.583 204.96C437.271 197.314 437.358 186.88 437.458 180.371C437.458 179.196 437.496 178.155 437.515 177.275L437.096 177.319C437.096 177.319 437.027 179.735 436.971 183.391C436.871 189.9 436.777 200.334 437.096 207.974C437.583 219.911 441.002 243.536 441.002 243.536V255.744C440.125 260.899 441.081 266.206 443.696 270.695L444.546 278.611C444.546 278.611 447.115 285.267 446.502 288.037C445.89 290.806 448.346 301.112 448.346 301.112Z" fill="black"/>
<path opacity="0.05" d="M491.859 329.755C490.659 327.968 489.858 325.929 489.516 323.786C488.009 325.186 489.741 330.622 491.391 332.781C493.097 335.043 505.81 336.424 508.266 332.273V329.883C504.935 333.243 493.472 331.894 491.859 329.755Z" fill="black"/>
<path opacity="0.05" d="M510.435 315.555C509.764 316.762 509.192 318.023 508.722 319.327V321.107C509.003 320.464 509.397 319.603 509.972 318.588C510.359 317.599 510.542 316.537 510.51 315.472C510.51 315.472 510.454 315.53 510.435 315.555Z" fill="black"/>
<path opacity="0.05" d="M492.609 317.541C493.074 316.573 493.477 315.575 493.816 314.553C493.816 314.553 491.734 315.054 488.434 311.032C486.034 308.109 485.897 302.583 486.24 298.972C485.615 301.112 484.647 310.03 487.947 314.052C490.103 316.68 491.734 317.374 492.609 317.541Z" fill="black"/>
<path opacity="0.05" d="M486.234 289.675C486.45 292.151 486.531 294.637 486.478 297.122C486.539 296.729 486.623 296.341 486.728 295.959C487.353 293.819 486.728 286.662 486.728 286.662C486.728 286.662 486.853 281.631 485.872 279.999C484.89 278.367 482.847 269.063 482.847 269.063C482.847 269.063 482.847 265.921 481.134 264.289C479.422 262.657 478.322 256.245 478.322 256.245C477.311 254.646 476.87 252.737 477.072 250.842C477.44 247.7 474.997 244.307 474.997 244.307L470.84 230.738L466.928 220.56L464.721 226.471C464.721 226.471 464.721 227.217 464.646 228.399L466.434 223.599L470.346 233.757L474.503 247.327C474.503 247.327 476.947 250.72 476.578 253.862C476.376 255.757 476.818 257.666 477.828 259.265C477.828 259.265 478.928 265.69 480.64 267.309C482.353 268.928 482.347 272.083 482.347 272.083C482.347 272.083 484.428 281.38 485.403 283.006C486.378 284.631 486.234 289.675 486.234 289.675Z" fill="black"/>
</g>
<path d="M496.497 58.5004L495.578 63.0879L495.635 65.1311L495.672 66.6346L490.572 67.1743L490.003 66.0884C488.947 64.1223 486.753 60.1259 486.047 59.5091C485.103 58.6996 483.422 45.9394 485.422 46.6975C486.653 47.1863 487.664 48.1273 488.259 49.3382C488.259 49.3382 498.303 50.5204 496.497 58.5004Z" fill="#FFCDD3"/>
<path opacity="0.1" d="M495.672 66.6345L490.572 67.1742L490.003 66.0884C490.689 65.2856 491.625 64.7521 492.65 64.5787C493.676 64.4053 494.728 64.6028 495.628 65.1375L495.672 66.6345Z" fill="black"/>
<path d="M496.959 69.1211L490.234 70.7209L490.091 69.6929L489.709 66.9237C489.709 66.9237 492.372 63.2742 496.222 66.0113L496.559 67.4184L496.959 69.1211Z" fill="#F5CB5C"/>
<path d="M388.02 59.0016L380.839 62.9595L380.213 61.5717C379.532 60.1003 378.513 57.8837 378.232 57.0741C377.807 55.8534 374.813 54.3113 374.813 54.3113C367.313 46.9289 376.251 40.5809 376.251 40.5809C380.989 30.7827 386.251 43.9091 386.251 43.9091C386.251 43.9091 386.989 50.8289 386.47 51.2915C385.951 51.7541 385.951 53.6495 385.951 53.6495C386.636 55.0075 387.214 56.419 387.682 57.8708C387.901 58.5712 388.02 59.0016 388.02 59.0016Z" fill="#FFCDD3"/>
<path opacity="0.1" d="M388.02 59.0015L380.838 62.9594L380.213 61.5716C381.226 60.6978 384.82 57.7165 386.001 57.8386C386.565 57.911 387.134 57.926 387.701 57.8836C387.901 58.5711 388.02 59.0015 388.02 59.0015Z" fill="black"/>
<path d="M388.751 61.2311L380.682 65.3175L380.52 63.5377L380.407 62.3041C380.407 62.3041 385.082 58.1856 386.464 58.3463C387.162 58.4503 387.871 58.4503 388.57 58.3463L388.664 59.8369L388.751 61.2311Z" fill="#F5CB5C"/>
<path d="M476.94 88.9745C476.94 88.9745 441.765 93.0545 448.34 90.8571C452.915 89.3215 454.734 86.3595 455.115 83.0185C455.427 80.2364 454.727 77.2359 453.809 74.6659C452.982 72.3859 451.935 70.1969 450.684 68.1316C450.684 68.1316 477.559 52.9298 472.19 66.7502C471.362 68.8405 470.848 71.0481 470.665 73.2973C470.504 75.5325 470.739 77.7793 471.359 79.928C472.373 83.4147 474.304 86.5454 476.94 88.9745Z" fill="#FFCDD3"/>
<path opacity="0.1" d="M472.171 66.731C471.344 68.8214 470.829 71.029 470.646 73.2782C468.115 75.4691 465.34 75.3213 461.771 75.3213C459.034 75.3213 455.996 76.0024 453.809 74.6467C452.982 72.3667 451.935 70.1777 450.684 68.1124C450.684 68.1124 477.553 52.9106 472.171 66.731Z" fill="black"/>
<path d="M461.296 76.2851C469.329 76.2851 475.84 69.5912 475.84 61.3339C475.84 53.0766 469.329 46.3827 461.296 46.3827C453.264 46.3827 446.752 53.0766 446.752 61.3339C446.752 69.5912 453.264 76.2851 461.296 76.2851Z" fill="#FFCDD3"/>
<path opacity="0.1" d="M476.94 88.9746C476.94 88.9746 441.765 93.0546 448.34 90.8572C452.915 89.3216 454.734 86.3596 455.115 83.0186C456.865 81.091 460.384 79.6583 462.615 78.9129C464.678 78.1998 466.905 78.1617 468.99 78.8037C469.81 79.0576 470.591 79.4297 471.309 79.9088C472.334 83.4083 474.283 86.5467 476.94 88.9746Z" fill="black"/>
<path opacity="0.1" d="M496.959 69.121L490.234 70.7209L490.091 69.6929C490.811 68.6761 491.818 67.9122 492.976 67.5052C494.133 67.0982 495.385 67.0679 496.559 67.4184L496.959 69.121Z" fill="black"/>
<path opacity="0.1" d="M388.751 61.2311L380.682 65.3175L380.52 63.5377C383.133 62.0931 385.85 60.8539 388.645 59.8304L388.751 61.2311Z" fill="black"/>
<path opacity="0.1" d="M490.853 180.089C477.222 182.325 457.846 185.177 454.771 184.214C452.215 183.417 444.065 183.5 436.971 183.751C437.033 180.102 437.096 177.679 437.096 177.679L489.897 172.025C489.897 172.025 489.847 174.531 490.853 180.089Z" fill="black"/>
<path d="M504.441 176.799C504.441 176.799 459.584 184.715 454.771 183.224C449.959 181.734 425.239 183.346 425.239 183.346C414.114 191.011 418.758 179.703 418.758 179.703C418.758 179.703 417.783 173.799 419.127 169.025C420.029 165.52 420.646 161.944 420.971 158.333C420.971 158.333 420.727 150.79 422.071 149.03C423.414 147.269 425.008 134.708 425.008 134.708C425.008 134.708 426.227 126.163 426.108 124.281C425.989 122.398 426.471 117.117 426.471 117.117L428.064 108.321C418.895 107.068 391.026 89.4758 391.026 89.4758C389.682 83.5712 379.295 69.7508 379.295 69.7508C379.143 68.5886 378.856 67.4495 378.438 66.3584C377.707 64.3473 388.707 60.3252 388.707 60.3252C388.707 60.3252 396.895 70.6053 398.608 73.3938C400.32 76.1823 406.183 81.3095 406.183 81.3095C407.094 81.2132 408.014 81.3364 408.87 81.6693L409.014 81.7143C410.979 82.5072 412.821 83.5893 414.483 84.9269C417.239 84.8596 419.913 85.8964 421.939 87.8181C421.939 87.8181 426.939 87.06 427.808 87.9402C428.677 88.8205 432.94 87.9402 432.94 87.9402C432.94 87.9402 437.215 78.6431 440.027 81.3417C442.84 84.0402 454.771 83.9117 454.771 83.9117C456.359 81.74 460.228 80.1851 462.646 79.4141C464.71 78.7039 466.936 78.6658 469.021 79.3049C469.921 79.5808 470.767 80.0157 471.521 80.5899L478.778 87.876C478.778 87.876 480.853 85.1068 480.609 84.4835C480.365 83.8603 483.053 83.3527 483.053 83.3527C483.053 83.3527 486.597 82.2219 487.941 81.8428C489.284 81.4637 490.516 82.9608 490.628 83.0957C490.584 82.9351 489.666 79.8832 490.003 77.5701C490.341 75.2571 488.534 73.0726 488.534 73.0726C492.809 62.2656 502.466 71.3121 502.466 71.3121C502.466 71.3121 503.566 77.2167 502.591 79.4784C501.616 81.74 503.566 86.5138 503.322 87.7732C503.078 89.0325 503.816 91.1656 503.816 93.5557C503.816 95.9459 502.566 100.463 501.86 102.474C501.153 104.485 495.259 109.008 495.259 109.008C495.259 109.008 494.891 116.172 492.322 120.316C489.753 124.46 491.366 138.634 491.366 138.634C491.366 138.634 493.809 149.692 496.866 153.213C499.922 156.734 504.441 176.799 504.441 176.799Z" fill="#3F3D56"/>
<path opacity="0.1" d="M439.052 94.1211C439.052 94.1211 437.708 89.9769 436.483 89.6235C435.267 89.1637 434.083 88.6184 432.94 87.9916L433.727 86.4431C433.727 86.4431 438.315 87.7281 439.052 89.1224C439.79 90.5166 439.052 94.1211 439.052 94.1211Z" fill="black"/>
<path opacity="0.1" d="M414.483 84.9525C414.239 86.2375 403.358 87.3362 403.358 87.3362L408.858 81.6693L408.995 81.7207C410.968 82.5179 412.816 83.6066 414.483 84.9525Z" fill="black"/>
<path d="M383.007 68.71C383.546 68.71 383.982 68.2612 383.982 67.7076C383.982 67.1541 383.546 66.7053 383.007 66.7053C382.469 66.7053 382.032 67.1541 382.032 67.7076C382.032 68.2612 382.469 68.71 383.007 68.71Z" fill="#575988"/>
<path d="M384.257 70.7209C384.796 70.7209 385.232 70.2722 385.232 69.7186C385.232 69.1651 384.796 68.7163 384.257 68.7163C383.719 68.7163 383.282 69.1651 383.282 69.7186C383.282 70.2722 383.719 70.7209 384.257 70.7209Z" fill="#575988"/>
<path d="M385.482 72.5779C386.021 72.5779 386.457 72.1291 386.457 71.5756C386.457 71.022 386.021 70.5732 385.482 70.5732C384.944 70.5732 384.507 71.022 384.507 71.5756C384.507 72.1291 384.944 72.5779 385.482 72.5779Z" fill="#575988"/>
<path d="M386.764 74.5824C387.302 74.5824 387.739 74.1337 387.739 73.5801C387.739 73.0265 387.302 72.5778 386.764 72.5778C386.225 72.5778 385.789 73.0265 385.789 73.5801C385.789 74.1337 386.225 74.5824 386.764 74.5824Z" fill="#575988"/>
<path d="M501.978 74.2869C502.417 74.2869 502.772 73.9215 502.772 73.4709C502.772 73.0202 502.417 72.6549 501.978 72.6549C501.54 72.6549 501.185 73.0202 501.185 73.4709C501.185 73.9215 501.54 74.2869 501.978 74.2869Z" fill="#575988"/>
<path d="M502.103 76.1437C502.542 76.1437 502.897 75.7784 502.897 75.3277C502.897 74.877 502.542 74.5117 502.103 74.5117C501.665 74.5117 501.31 74.877 501.31 75.3277C501.31 75.7784 501.665 76.1437 502.103 76.1437Z" fill="#575988"/>
<path d="M502.21 77.9942C502.648 77.9942 503.003 77.6288 503.003 77.1782C503.003 76.7275 502.648 76.3622 502.21 76.3622C501.771 76.3622 501.416 76.7275 501.416 77.1782C501.416 77.6288 501.771 77.9942 502.21 77.9942Z" fill="#575988"/>
<path opacity="0.1" d="M439.096 128.174C438.977 128.026 466.534 163.795 487.922 143.125C487.941 143.132 454.146 147.841 439.096 128.174Z" fill="black"/>
<path opacity="0.1" d="M423.283 146.768C423.283 146.768 439.771 147.231 441.496 152.107V157.183C441.026 157.451 440.498 157.592 439.961 157.592C439.425 157.592 438.897 157.451 438.427 157.183C436.765 156.258 426.796 151.054 423.283 153.559V146.768Z" fill="black"/>
<path d="M423.589 146.768C423.589 146.768 439.358 147.212 441.008 151.863V156.695C440.559 156.951 440.054 157.086 439.54 157.086C439.026 157.086 438.52 156.951 438.071 156.695C436.483 155.821 426.952 150.855 423.589 153.245V146.768Z" fill="#3F3D56"/>
<path opacity="0.1" d="M432.283 109.965C433.968 113.974 436.114 117.759 438.677 121.241C441.464 125.09 444.842 128.447 448.677 131.181C448.677 131.181 432.558 112.291 432.283 109.965Z" fill="black"/>
<path opacity="0.1" d="M426.889 90.2725C426.889 90.2725 429.639 102.48 436.727 106.624L426.889 90.2725Z" fill="black"/>
<path opacity="0.1" d="M422.671 91.5061C422.602 91.2812 420.227 101.144 431.808 106.624C431.808 106.624 426.889 104.909 422.671 91.5061Z" fill="black"/>
<path opacity="0.1" d="M494.666 83.3205C494.484 83.3205 500.378 87.1756 501.985 88.9746C501.985 88.9746 498.147 83.0635 494.666 83.3205Z" fill="black"/>
<path d="M457.365 74.8843C457.367 75.2105 457.435 75.5327 457.565 75.8304C457.694 76.1282 457.882 76.3951 458.117 76.6143C458.352 76.8335 458.629 77.0002 458.93 77.1039C459.231 77.2076 459.549 77.246 459.865 77.2166C464.296 77.4993 468.915 77.6985 472.99 75.9316C473.755 75.6512 474.441 75.1837 474.99 74.5695C475.715 73.6507 475.859 72.4042 476.153 71.2606C476.728 69.0246 477.953 67.0393 478.834 64.9126C480.325 61.3195 480.825 57.3737 480.278 53.5081C480.163 52.3231 479.782 51.1818 479.165 50.1735C477.99 48.4451 475.847 47.7448 474.29 46.3698C472.734 44.9948 471.734 42.8938 469.915 41.8722C468.278 40.9342 466.271 41.0498 464.428 41.3711C460.801 42.0042 457.326 43.3455 454.19 45.3225C453.134 45.965 451.977 46.7553 450.765 46.5176C449.702 46.312 448.927 45.3932 448.265 44.5322C447.413 46.5883 447.054 48.8252 447.221 51.0537C447.267 51.3807 447.257 51.7135 447.19 52.0367C447.037 52.4275 446.805 52.7802 446.509 53.0712C445.415 54.3562 444.733 56.4443 445.815 57.7679C446.284 58.3397 447.009 58.6546 447.465 59.2392C448.284 60.2865 448.009 61.8093 447.99 63.1457C447.945 63.6123 448.06 64.0805 448.315 64.4693C448.551 64.6958 448.841 64.8557 449.155 64.9334C449.469 65.0111 449.798 65.0039 450.109 64.9126C450.728 64.7209 451.378 64.6575 452.021 64.7263C452.699 64.9528 453.284 65.4049 453.684 66.0113C455.702 68.7162 456.502 71.6589 457.365 74.8843Z" fill="#333333"/>
<g opacity="0.1">
<path opacity="0.1" d="M475.509 73.4322C474.96 74.0464 474.273 74.5139 473.509 74.7944C469.409 76.5484 464.796 76.3492 460.384 76.0794C459.91 76.0842 459.442 75.9765 459.015 75.7645C458.34 75.3598 458.084 74.5117 457.877 73.7406C457.015 70.5281 456.221 67.579 454.171 64.8997C453.776 64.2817 453.191 63.8179 452.509 63.5826C451.865 63.5202 451.217 63.5834 450.596 63.7689C450.286 63.8611 449.958 63.8693 449.643 63.7927C449.329 63.7162 449.039 63.5575 448.802 63.332C448.547 62.9433 448.432 62.4751 448.477 62.0084C448.477 60.6592 448.771 59.1493 447.952 58.102C447.496 57.5173 446.771 57.2025 446.302 56.6242C445.997 56.1979 445.809 55.6943 445.759 55.1671C445.71 54.6399 445.8 54.1087 446.021 53.6301C445.24 54.9151 444.909 56.5278 445.815 57.633C446.284 58.2048 447.009 58.5196 447.465 59.1043C448.284 60.158 448.009 61.6743 447.99 63.0108C447.942 63.4767 448.055 63.9452 448.309 64.3343C448.546 64.562 448.836 64.7225 449.152 64.8002C449.467 64.8779 449.797 64.8702 450.109 64.7777C450.728 64.5859 451.378 64.5226 452.021 64.5913C452.699 64.8178 453.284 65.27 453.684 65.8763C455.727 68.5556 456.527 71.4983 457.39 74.7237C457.491 75.5174 457.877 76.2437 458.471 76.7604C458.9 76.9727 459.371 77.0784 459.846 77.0688C464.278 77.3515 468.896 77.5571 472.972 75.7838C473.737 75.5052 474.424 75.0375 474.972 74.4217C475.247 74.0598 475.459 73.6509 475.597 73.2138C475.603 73.2973 475.559 73.368 475.509 73.4322Z" fill="black"/>
<path opacity="0.1" d="M447.221 51.6448C447.417 51.4257 447.568 51.1677 447.665 50.8867C447.721 50.5616 447.721 50.2287 447.665 49.9036C447.543 48.0718 447.774 46.2333 448.346 44.4937L448.265 44.3973C447.41 46.4504 447.052 48.6859 447.221 50.9124C447.24 51.1561 447.24 51.4011 447.221 51.6448Z" fill="black"/>
</g>
<path opacity="0.1" d="M454.771 83.9438C454.771 83.9438 472.94 86.4238 474.572 83.6161L454.771 83.9438Z" fill="black"/>
<path opacity="0.1" d="M490.091 76.2144C490.091 76.2144 500.191 76.2143 502.41 80.1208L490.091 76.2144Z" fill="black"/>
<path d="M546.598 423.266C543.602 426.019 539.709 427.514 535.691 427.455C534.666 427.455 533.248 427.654 533.241 428.708C533.266 429.017 533.37 429.314 533.541 429.569C534.81 431.742 536.812 433.359 539.167 434.111C541.354 434.792 543.692 434.676 545.973 434.554L552.629 434.201C553.879 434.13 555.129 434.066 556.379 433.905C557.629 433.745 558.992 433.481 560.298 433.263C563.508 432.794 566.754 432.639 569.992 432.8C570.855 432.832 571.867 432.8 572.38 432.158C572.892 431.515 572.63 430.288 572.436 429.324C572.036 427.339 572.436 425.257 572.067 423.266C571.442 419.77 568.498 417.091 565.273 415.825C562.273 414.656 556.961 413.313 554.123 415.266C551.129 417.316 549.298 420.74 546.598 423.266Z" fill="#242423"/>
<path d="M553.211 306.162C553.798 309.034 556.504 311.231 556.579 314.161C556.648 316.513 555.017 318.485 553.842 320.496C552.735 322.579 551.8 324.754 551.048 326.998C548.836 332.842 546.09 338.457 542.848 343.768C541.285 346.338 539.535 349.081 539.892 352.069C540.141 353.466 540.62 354.809 541.31 356.04L545.998 365.613C547.025 367.525 547.828 369.554 548.392 371.659C548.798 373.477 548.835 375.36 549.073 377.21C549.811 383.083 552.492 388.994 550.904 394.687C550.767 395.175 550.279 395.766 549.898 395.426C551.448 398.4 552.692 401.394 552.573 404.768C552.511 406.535 551.986 408.379 552.617 410.023C552.886 410.711 553.354 411.353 553.348 412.092C553.348 412.58 553.129 413.037 553.079 413.512C552.948 414.868 554.161 415.999 555.417 416.429C556.673 416.86 558.042 416.828 559.311 417.219C561.748 417.971 563.492 420.13 565.561 421.627C567.683 423.13 570.185 423.967 572.761 424.036C573.128 424.077 573.499 424 573.823 423.818C574.007 423.653 574.155 423.449 574.256 423.221C574.357 422.993 574.41 422.745 574.411 422.494C574.524 421.294 574.348 420.084 573.899 418.97C573.45 417.857 572.742 416.874 571.836 416.108C571.439 415.852 571.11 415.499 570.88 415.08C570.763 414.709 570.733 414.315 570.792 413.93C571.169 408.664 571.077 403.373 570.517 398.124C570.264 396.461 570.183 394.774 570.273 393.093C570.405 391.693 570.817 390.305 570.667 388.91C570.517 387.516 569.823 386.244 569.417 384.901C568.692 382.511 568.892 379.941 568.792 377.442C568.667 373.098 567.698 368.832 566.736 364.592C566.355 362.927 565.936 361.186 564.792 359.953C563.817 358.905 562.242 357.903 562.611 356.509C562.815 355.995 563.119 355.529 563.504 355.14C563.957 354.556 564.289 353.884 564.48 353.163C564.672 352.443 564.718 351.69 564.617 350.951C565.028 351.059 565.463 351.017 565.847 350.831C566.231 350.646 566.541 350.33 566.723 349.936C574.336 346.241 580.474 338.853 583.211 330.661C583.373 330.052 583.621 329.472 583.949 328.939C584.655 327.924 585.88 327.487 586.967 326.928C590.38 325.161 592.736 321.852 594.899 318.614C596.149 316.737 597.399 314.797 597.961 312.587C598.257 311.157 598.397 309.698 598.38 308.237L598.574 300.688C598.616 300.19 598.57 299.69 598.436 299.21C598.251 298.762 597.981 298.355 597.643 298.015C595.564 295.755 592.834 294.241 589.855 293.697C587.855 293.331 585.811 293.402 583.786 293.228C579.861 292.894 575.986 291.641 572.061 291.943C565.892 292.412 560.398 296.807 557.492 302.422C556.473 304.401 555.398 306.123 553.211 306.162Z" fill="#333333"/>
<path d="M518.96 257.074C519.043 258.24 518.89 259.41 518.51 260.512C518.029 261.565 516.822 262.388 515.766 261.957C516.085 261.218 515.241 260.377 514.454 260.467C514.066 260.558 513.706 260.745 513.405 261.012C513.103 261.278 512.869 261.616 512.722 261.996C512.2 263.075 512.025 264.296 512.222 265.485C512.472 266.962 513.304 268.382 513.085 269.866C512.91 271.1 512.029 272.327 512.497 273.471C512.801 273.993 513.183 274.464 513.629 274.865C514.246 275.647 514.548 276.643 514.473 277.647C514.397 278.651 513.949 279.587 513.222 280.262L525.048 280.506C524.616 282.537 525.504 284.612 526.516 286.417C529.352 291.381 533.268 295.602 537.957 298.749C542.646 301.896 547.98 303.883 553.542 304.555C553.241 304.736 552.983 304.983 552.787 305.278C552.59 305.574 552.46 305.911 552.406 306.264C552.351 306.618 552.374 306.979 552.472 307.323C552.57 307.666 552.741 307.983 552.973 308.25C553.936 309.233 555.567 309.111 556.773 308.475C557.979 307.839 558.923 306.785 560.023 305.969C561.965 304.555 564.334 303.898 566.705 304.119C568.186 304.266 569.623 304.761 571.111 304.838C575.486 305.076 579.236 301.838 583.449 300.514C586.518 299.544 589.999 299.544 592.574 297.571C593.686 296.723 594.599 295.329 594.274 293.954C594.005 293.164 593.579 292.44 593.024 291.827C591.543 289.855 590.668 287.484 589.605 285.242C587.5 280.802 584.602 276.809 581.061 273.471C578.389 271.07 575.557 268.863 572.586 266.866C571.868 266.321 571.102 265.846 570.298 265.446C569.261 264.977 568.111 264.752 567.173 264.161C565.786 263.261 564.986 261.674 563.917 260.396C561.573 257.582 557.973 256.29 555.086 254.08C553.148 252.596 551.436 250.643 549.123 249.929C547.998 249.576 546.804 249.55 545.679 249.203C543.123 248.407 541.26 246.074 538.754 245.13C536.773 244.385 534.585 244.577 532.504 244.314C530.158 244.016 527.917 243.139 525.973 241.757C525.346 241.232 524.644 240.812 523.891 240.51C520.722 239.521 520.466 245.586 520.141 247.687C519.722 250.81 518.96 253.913 518.96 257.074Z" fill="#F5CB5C"/>
<path d="M522.047 277.416C522.579 283.34 518.229 289.078 519.497 294.879C519.766 296.113 520.285 297.289 520.472 298.542C521.004 301.979 519.004 305.237 517.097 308.115L500.722 332.82C500.065 333.904 499.279 334.901 498.384 335.788C495.259 338.647 490.559 338.358 486.447 339.206C483.558 339.816 480.83 341.056 478.447 342.843C478.339 342.928 478.269 343.053 478.25 343.191C478.231 343.329 478.266 343.469 478.347 343.582C479.026 344.532 479.925 345.293 480.963 345.794C482.002 346.296 483.145 346.523 484.29 346.454C484.722 347.032 484.29 347.893 483.697 348.31C482.822 348.953 481.609 349.101 481.434 350.636C481.375 351.17 481.48 351.709 481.734 352.178C482.396 353.214 483.422 353.946 484.597 354.221C490.266 356.008 496.391 352.872 500.635 348.612C504.878 344.353 507.922 338.975 512.085 334.644C514.391 332.241 517.01 330.192 519.385 327.866C524.122 323.22 527.81 317.586 531.36 311.938C532.429 310.235 533.51 308.488 533.954 306.515C534.398 304.543 534.191 302.545 534.698 300.636C535.36 298.137 537.141 296.139 538.623 294.044C541.529 289.932 543.473 284.901 543.085 279.832C542.698 274.763 539.648 269.764 534.998 268.042C533.555 267.453 531.967 267.354 530.466 267.759C528.56 268.363 527.154 269.982 525.854 271.537L522.729 275.225C521.968 276.042 521.371 277.005 520.972 278.059C520.771 278.59 520.723 279.169 520.834 279.727C520.944 280.286 521.21 280.8 521.597 281.207" fill="#FBBEBE"/>
<path d="M530.348 253.116C528.198 253.245 525.829 253.463 524.31 255.044C523.673 255.77 523.158 256.599 522.785 257.498C521.31 260.589 519.872 263.821 519.766 267.264C519.679 270.014 520.454 272.706 520.86 275.424C521.197 277.686 520.341 279.993 520.179 282.28C522.847 281.438 526.373 280.295 528.791 278.875C530.441 277.904 532.035 276.799 533.835 276.182C536.404 275.302 540.71 276.825 543.154 278.046C543.285 276.285 541.998 273.214 542.135 271.447C542.154 270.703 542.283 269.967 542.517 269.263C542.882 268.518 543.315 267.81 543.81 267.149C544.741 265.594 545.168 263.776 545.033 261.956C544.897 260.136 544.204 258.407 543.054 257.016C540.885 254.511 537.491 253.573 534.254 253.161C532.215 252.918 530.16 252.845 528.11 252.943" fill="#F5CB5C"/>
<path d="M223.318 261.378C223.318 261.378 226.529 275.508 227.658 288.925C233.612 300.073 240.139 316.095 241.395 334.558L241.414 334.766C241.488 334.589 246.139 323.095 246.139 298.29C246.139 278.884 241.304 261.378 241.304 261.378H223.318ZM196.666 274.725C196.666 274.725 218.448 308.102 219.925 334.786H238.067C235.751 300.824 214.652 274.725 214.652 274.725H196.666ZM193.279 275.643C193.136 278.259 192.588 286.203 190.917 295.416C194.379 301.265 198.425 309.717 201.202 320.618L201.385 321.335C203.069 317.778 206.315 308.577 207.578 302.474C201.276 288.043 193.99 276.739 193.867 276.549L193.279 275.643ZM162.608 288.071C162.608 288.071 175.382 304.515 179.151 321.439H197.965C192.445 299.783 181.663 288.071 181.663 288.071H162.608Z" fill="#F5CB5C"/>
<defs>
<linearGradient id="paint0_linear" x1="441.396" y1="350.925" x2="441.396" y2="36.957" gradientUnits="userSpaceOnUse">
<stop stop-color="#808080" stop-opacity="0.25"/>
<stop offset="0.54" stop-color="#808080" stop-opacity="0.12"/>
<stop offset="1" stop-color="#808080" stop-opacity="0.1"/>
</linearGradient>
</defs>
</svg>
