<svg width="90" height="90" viewBox="0 0 90 90" fill="none" xmlns="http://www.w3.org/2000/svg">
<path d="M60.5096 12C60.5096 12 63.3921 24.7046 64.4061 36.7676C69.7521 46.7906 75.612 61.1959 76.74 77.7949L76.7576 77.9824C76.8236 77.8234 80.9998 67.4895 80.9998 45.1875C80.9998 27.7395 76.658 12 76.658 12H60.5096ZM36.5799 24C36.5799 24 56.1367 54.009 57.4627 78H73.7518C71.6728 47.466 52.7283 24 52.7283 24H36.5799ZM33.5389 24.8262C33.4099 27.1782 32.9178 34.3205 31.4178 42.6035C34.5258 47.8625 38.1592 55.4607 40.6522 65.2617L40.8162 65.9062C42.3282 62.7083 45.2428 54.4362 46.3768 48.9492C40.7188 35.9742 34.1772 25.8116 34.0662 25.6406L33.5389 24.8262ZM5.99982 36C5.99982 36 17.4693 50.784 20.8533 66H37.7459C32.7899 46.53 23.1092 36 23.1092 36H5.99982Z" fill="#F5CB5C"/>
</svg>
